{"title":"Under the Dome S01E12 HDTV x264-LOL [VKU].mp4","uid":8903182,"size":292405933,"categoryP":"video","categoryS":"hd___tv_shows","magnet":"?xt=urn:btih:c9be427057da0db8a57a25220d6fcb4367292fef&amp;dn=Under+the+Dome+S01E12+HDTV+x264-LOL+%5BVKU%5D.mp4&amp;tr=udp%3A%2F%2Ftracker.openbittorrent.com%3A80&amp;tr=udp%3A%2F%2Fopen.demonii.com%3A1337&amp;tr=udp%3A%2F%2Ftracker.coppersurfer.tk%3A6969&amp;tr=udp%3A%2F%2Fexodus.desync.com%3A6969","seeders":0,"leechers":1,"uploader":"rawenkoye","files":1,"time":1378852188,"description":"\n\n      Format : MPEG-4\n      Format profile : Base Media\n      Codec ID : isom\n      File size : 279 MiB\n      Duration : 42mn 45s\n      Overall bit rate mode : Variable\n      Overall bit rate : 912 Kbps\n\n\n   Video #1\n      ID : 1\n      Format : AVC\n      Format/Info : Advanced Video Codec\n      Format profile : &lt;a class=&quot;__cf_email__&quot; href=&quot;/cdn-cgi/l/email-protection&quot; data-cfemail=&quot;6f270608072f235c415e&quot;&gt;[email&amp;#160;protected]&lt;/a&gt;&lt;script cf-hash='f9e31' type=&quot;text/javascript&quot;&gt;\n/* &lt;![CDATA[ */!function(){try{var t=&quot;currentScript&quot;in document?document.currentScript:function(){for(var t=document.getElementsByTagName(&quot;script&quot;),e=t.length;e--;)if(t[e].getAttribute(&quot;cf-hash&quot;))return t[e]}();if(t&amp;&amp;t.previousSibling){var e,r,n,i,c=t.previousSibling,a=c.getAttribute(&quot;data-cfemail&quot;);if(a){for(e=&quot;&quot;,r=parseInt(a.substr(0,2),16),n=2;a.length-n;n+=2)i=parseInt(a.substr(n,2),16)^r,e+=String.fromCharCode(i);e=document.createTextNode(e),c.parentNode.replaceChild(e,c)}}}catch(u){}}();/* ]]&gt; */&lt;/script&gt;\n      Format settings, CABAC : Yes\n      Format settings, ReFrames : 5 frames\n      Codec ID : avc1\n      Codec ID/Info : Advanced Video Coding\n      Duration : 42mn 45s\n      Bit rate : 790 Kbps\n      Maximum bit rate : 3 034 Kbps\n      Width : 720 pixels\n      Height : 404 pixels\n      Display aspect ratio : 16:9\n      Frame rate mode : Constant\n      Frame rate : 23.976 fps\n      Color space : YUV\n      Chroma subsampling : 4:2:0\n      Bit depth : 8 bits\n      Scan type : Progressive\n      Bits/(Pixel*Frame) : 0.113\n      Stream size : 242 MiB (87%)\n \n\n   Audio #2\n      ID : 2\n      Format : AAC\n      Format/Info : Advanced Audio Codec\n      Format profile : LC\n      Codec ID : 40\n      Duration : 42mn 45s\n      Bit rate mode : Variable\n      Bit rate : 118 Kbps\n      Maximum bit rate : 147 Kbps\n      Channel(s) : 2 channels\n      Channel positions : Front: L R\n      Sampling rate : 48.0 KHz\n      Compression mode : Lossy\n      Delay relative to video : -127ms\n      Stream size : 36.1 MiB (13%)\n","torrent":{"xt":"urn:btih:c9be427057da0db8a57a25220d6fcb4367292fef","amp;dn":"Under+the+Dome+S01E12+HDTV+x264-LOL+%5BVKU%5D.mp4","amp;tr":["udp%3A%2F%2Ftracker.openbittorrent.com%3A80","udp%3A%2F%2Fopen.demonii.com%3A1337","udp%3A%2F%2Ftracker.coppersurfer.tk%3A6969","udp%3A%2F%2Fexodus.desync.com%3A6969"],"infoHash":"c9be427057da0db8a57a25220d6fcb4367292fef","infoHashBuffer":{"type":"Buffer","data":[201,190,66,112,87,218,13,184,165,122,37,34,13,111,203,67,103,41,47,239]},"announce":[],"urlList":[]}}